<svg width="32" height="32" viewBox="0 0 32 32" fill="none" xmlns="http://www.w3.org/2000/svg">
  <defs>
    <radialGradient id="globeGrad" cx="0.3" cy="0.3" r="0.7">
      <stop offset="0%" stop-color="#60a5fa"/>
      <stop offset="100%" stop-color="#1e40af"/>
    </radialGradient>
  </defs>
  
  <!-- Globe -->
  <circle cx="16" cy="16" r="14" fill="url(#globeGrad)" stroke="#1e3a8a" stroke-width="1"/>
  
  <!-- Continents -->
  <path d="M 8 10 Q 10 8 14 10 Q 15 12 12 14 Q 8 13 8 10 Z" fill="#10b981"/>
  <path d="M 11 18 Q 13 16 14 20 Q 12 23 10 20 Q 11 18 11 18 Z" fill="#10b981"/>
  <path d="M 18 9 Q 22 8 23 12 Q 24 18 22 22 Q 19 20 18 15 Q 17 12 18 9 Z" fill="#10b981"/>
  <path d="M 24 8 Q 26 9 25 13 Q 24 16 23 18 Q 22 13 24 8 Z" fill="#10b981"/>
  
  <!-- Grid -->
  <g stroke="#1e40af" stroke-width="0.5" fill="none" opacity="0.4">
    <ellipse cx="16" cy="16" rx="14" ry="7"/>
    <ellipse cx="16" cy="16" rx="10" ry="14"/>
    <line x1="2" y1="16" x2="30" y2="16"/>
  </g>
</svg>
